<?xml version="1.0" encoding="UTF-8"?>
<svg width="182px" height="106px" viewBox="0 0 182 106" version="1.1" xmlns="http://www.w3.org/2000/svg" xmlns:xlink="http://www.w3.org/1999/xlink">
    <!-- Generator: Sketch 50.2 (55047) - http://www.bohemiancoding.com/sketch -->
    <title>illo</title>
    <desc>Created with Sketch.</desc>
    <defs></defs>
    <g id="Page-1" stroke="none" stroke-width="1" fill="none" fill-rule="evenodd">
        <g id="Desktop-HD" transform="translate(-869.000000, -3894.000000)">
            <g id="Group-11" transform="translate(0.000000, 3776.000000)">
                <g id="Stacked-Group" transform="translate(568.000000, 119.000000)">
                    <g id="illo" transform="translate(302.000000, 0.000000)">
                        <g id="Macbook-Pro">
                            <path d="M172.848307,97.0682978 L179.850152,97.0682978 C179.932113,97.0682978 180,97.1373054 180,97.2200315 L180,102.366923 C180,102.450896 179.932113,102.518657 179.850152,102.518657 L172.659505,102.518657 M0.15026182,102.518657 C0.067058994,102.518657 0,102.450896 0,102.366923 M0,97.2200315 C0,97.1373054 0.0674729384,97.0682978 0.15026182,97.0682978" id="Shape" stroke="#FFFFFF" stroke-width="0.519480519"></path>
                            <path d="M164.415142,40.1680553 L164.415142,5.82422225 C164.415584,2.6075955 161.815696,0 158.610451,0 L22.1696559,0 C18.9635251,0 16.3636364,2.6075955 16.3636364,5.82422225 C16.3636364,14.2015959 16.3636364,20.4846261 16.3636364,24.6733129 M60.6305895,97.0682978 L142.340495,97.0682978" id="Shape" stroke="#FFFFFF" stroke-width="0.519480519"></path>
                            <path d="M158.441558,40.2018023 L158.441558,5.70989987 L22.3376623,5.70989987 L22.3376623,24.3955464 M60.6247763,91.3583979 L142.189128,91.3583979" id="Rectangle" stroke="#FFFFFF" stroke-width="0.519480519"></path>
                            <path d="M100.2,44.2422393 L99.7407907,45.9573745 L97.7145886,53.7621136 C97.4802978,54.6605794 96.9409321,55.4479758 96.190203,55.9874975 C96.190203,55.9874975 94.0219775,57.5373184 91.2809238,59.3462376 C90.883576,59.6657801 90.3195801,59.6657801 89.9222323,59.3462376 C87.482584,57.7503195 85.009797,55.9938558 85.009797,55.9938558 C84.2584774,55.4545998 83.7185311,54.667171 83.4838333,53.7684719 L81.446585,45.9669118 L81,44.2549558 L81.6911811,42.3570212 L81.1877866,41.2252546 C81.1380637,41.1131475 81.1618893,40.9817818 81.2477521,40.8946261 L82.5843511,39.5323733 C83.1621109,38.9384091 84.0290276,38.7351268 84.807808,39.0109976 L85.1644448,39.1381624 L87.1685543,36.9318533 L90.5928988,36.9048307 L90.6149914,36.9048307 L94.0172434,36.9239055 L96.0229309,39.1127295 L96.390614,38.9839751 C97.1642487,38.7113779 98.0245737,38.9125543 98.5998685,39.5005821 L99.9127969,40.837402 C100.020565,40.946727 100.050645,41.1114835 99.9885428,41.2522771 L99.5056629,42.3427152 L100.2,44.2422393 Z M91.1609928,50.9644882 C91.0311191,50.9059251 90.8971516,50.8570472 90.760171,50.8182487 L90.518731,50.8182487 C90.3817503,50.8570472 90.2477828,50.9059251 90.1179091,50.9644882 L89.5103641,51.2188178 C89.3178433,51.2998853 89.0085477,51.4445353 88.8239172,51.5367298 L87.7066656,52.1232774 C87.6238881,52.1503293 87.5657677,52.2253774 87.5598637,52.3128357 C87.5539596,52.400294 87.6014591,52.4825767 87.6798389,52.5206673 L88.6503329,53.2105363 C88.8207611,53.3313429 89.0890277,53.5443439 89.2468316,53.6874043 L89.5198323,53.9242487 C89.6776362,54.0609509 89.9348566,54.288258 90.0910824,54.4281392 L90.3498808,54.6586254 C90.5148921,54.7970972 90.7545416,54.7970972 90.9195529,54.6586254 L91.1909756,54.4201914 L91.7622257,53.9178905 L92.0368045,53.6762774 C92.1946084,53.5379857 92.461297,53.3249847 92.6317252,53.1994094 L93.6022191,52.5000031 C93.6807978,52.4620023 93.7281763,52.3793263 93.7215444,52.291779 C93.7149125,52.2042317 93.6556293,52.1297539 93.5722364,52.1042026 L92.4565628,51.5335506 C92.2703542,51.438177 91.9610586,51.2951166 91.7669598,51.2156387 L91.1609928,50.9644882 Z M98.0412427,44.6666518 L98.0728035,44.56492 C98.0746698,44.4288282 98.0662291,44.2927912 98.0475549,44.1579926 C97.9536081,43.9172123 97.8329089,43.687916 97.687762,43.4744819 L97.0565464,42.5414102 C96.9397715,42.3665586 96.7409386,42.0899752 96.6068053,41.9262505 L95.7609764,40.8596558 C95.6838241,40.7557022 95.6000094,40.656939 95.5100682,40.5639977 L95.4927098,40.5639977 C95.4927098,40.5639977 95.3222816,40.5941993 95.1171365,40.6339383 L93.8247226,40.8850888 L93.2582066,40.9947684 C93.0701285,41.0036701 92.882101,40.9761504 92.704315,40.9137008 L91.6833237,40.5814828 C91.4844908,40.5163109 91.1562587,40.4225268 90.9526917,40.3780192 C90.7381565,40.3550519 90.521809,40.3550519 90.3072738,40.3780192 C90.1037067,40.4257059 89.7754746,40.5179004 89.5766417,40.5830724 L88.5556505,40.91688 C88.3778645,40.9793295 88.189837,41.0068492 88.0017589,40.9979475 L87.4352429,40.8898574 L86.1412509,40.6402965 C85.9361059,40.6005575 85.7672557,40.5687663 85.7656777,40.5703559 L85.7483192,40.5703559 C85.658378,40.6632972 85.5745633,40.7620604 85.497411,40.866014 L84.6531602,41.9326087 C84.523761,42.0915647 84.320194,42.3745064 84.2034191,42.5477684 L83.5722035,43.4808401 C83.4631868,43.6417478 83.3636005,43.8089367 83.2739541,43.9815515 C83.2198788,44.174029 83.1912273,44.3728469 83.18874,44.5728678 L83.2203008,44.6745996 C83.2354938,44.7399489 83.2549996,44.8042039 83.2786883,44.8669364 C83.4096655,45.0258923 83.633747,45.2897593 83.7773486,45.4439466 L85.9866031,47.8092118 C86.1359694,47.9848544 86.1788752,48.228342 86.0986439,48.4450357 L85.737273,49.3081668 C85.6551018,49.5368398 85.6490091,49.7862325 85.7199145,50.0187 L85.7925043,50.2189846 C85.9111114,50.5442717 86.1144206,50.8314217 86.3811128,51.0503244 L86.7282814,51.3348556 C86.911612,51.468063 87.1500839,51.4968886 87.359497,51.4111545 L88.5935235,50.8182487 C88.8200405,50.7040231 89.031989,50.562582 89.224739,50.3970153 L90.2125914,49.4989139 C90.2920899,49.4266199 90.3391351,49.3249778 90.3430002,49.2171636 C90.3468653,49.1093494 90.3072207,49.0045541 90.2331059,48.9266724 L88.0033369,47.4134113 C87.8288562,47.2886941 87.771159,47.0541928 87.8676255,46.861834 L88.7323909,45.2245873 C88.8317126,45.0221683 88.8470413,44.7882715 88.7749979,44.5744573 C88.6676101,44.3725094 88.4942337,44.2141521 88.2842278,44.1262014 L85.5731569,43.094577 C85.3774801,43.0198677 85.3885263,42.9356211 85.5952494,42.9229046 L87.1874908,42.7639486 C87.4371723,42.7479551 87.6878143,42.7704686 87.9307471,42.8307101 L89.3162653,43.2201523 C89.5196994,43.2819175 89.6464626,43.4856759 89.6129366,43.6970203 L89.0685132,46.6917511 C89.0321011,46.8576209 89.0230378,47.0283964 89.0416865,47.1972312 C89.0637791,47.2687614 89.2499877,47.3561872 89.4535547,47.4070531 L90.2978055,47.5882629 C90.5429783,47.633654 90.7943111,47.633654 91.0394838,47.5882629 L91.7985206,47.4150009 C92.0020876,47.3689037 92.1867182,47.2719405 92.2103888,47.2004103 C92.2285487,47.0314892 92.2189519,46.8607082 92.1819841,46.6949303 L91.6344045,43.7001994 C91.6008786,43.4888551 91.7276417,43.2850966 91.9310759,43.2233314 L93.3165941,42.8322997 C93.5595228,42.7720335 93.8101686,42.7495198 94.0598504,42.7655381 L95.6520917,42.9149568 C95.8603929,42.9340315 95.8698611,43.0119199 95.6757623,43.0866292 L92.9662694,44.1214328 C92.7562636,44.2093835 92.5828871,44.3677407 92.4754993,44.5696886 C92.4036312,44.783526 92.4189554,45.0173535 92.5181064,45.2198187 L93.3844497,46.8570654 C93.4809163,47.0494241 93.4232191,47.2839254 93.2487384,47.4086427 L91.0205474,48.9250828 C90.9464326,49.0029645 90.9067881,49.1077599 90.9106531,49.2155741 C90.9145182,49.3233883 90.9615634,49.4250303 91.0410619,49.4973244 L92.0304923,50.3954257 C92.2233273,50.560436 92.4352723,50.701341 92.6617079,50.8150696 L93.8957344,51.4063858 C94.1054141,51.4916639 94.3439052,51.4622355 94.5269499,51.3284974 L94.8741185,51.0423766 C95.1410979,50.8230909 95.3444379,50.5353481 95.462727,50.2094472 L95.5353168,50.0091627 C95.6062223,49.7766951 95.6001296,49.5273025 95.5179584,49.2986294 L95.1550095,48.4354984 C95.0747781,48.2188046 95.1176839,47.9753171 95.2670502,47.7996744 L97.4763048,45.4312301 C97.6199063,45.2722741 97.8424098,45.0179445 97.973387,44.8542199 C98.0000924,44.793275 98.0227606,44.7306152 98.0412427,44.6666518 Z" id="Combined-Shape" fill="#FFFFFF" fill-rule="nonzero"></path>
                            <path d="M57.6247531,104.335443 L175.820516,104.335443 C177.734713,104.335443 179.350076,103.56922 179.87013,102.518657 C176.580193,102.518657 174.160412,102.518657 172.610786,102.518657 M142.548934,102.518657 C124.334092,102.518657 97.0118292,102.518657 60.5821458,102.518657" id="Shape" stroke="#FFFFFF" stroke-width="0.519480519"></path>
                        </g>
                        <g id="iPad" transform="translate(0.000000, 24.584788)">
                            <path d="M2.97114102e-14,2.90940388 C2.97114102e-14,1.30214399 1.29208636,0 2.88576407,0 L57.7142359,0 C59.3079136,0 60.6,1.30214399 60.6,2.90940388 L60.6,76.8412509 C60.6,78.4479838 59.3079136,79.7506547 57.7142359,79.7506547 L2.88576407,79.7506547 C1.29208636,79.7506547 0,78.4479838 0,76.8412509 L0,2.90940388 L2.97114102e-14,2.90940388 Z" id="Shape" stroke="#FFFFFF" stroke-width="0.519480519"></path>
                            <polygon id="Rectangle" stroke="#FFFFFF" stroke-width="0.519480519" points="3.33836009 5.79609833 3.33836009 70.5148526 57.4744374 70.5148526 57.4744374 5.79609833 22.386962 5.79609833 16.3870034 5.79609833"></polygon>
                            <path d="M37.8,35.0493274 L37.455593,36.3356788 L35.9359415,42.1892332 C35.7602234,42.8630825 35.3556991,43.4536298 34.7926523,43.8582711 C34.7926523,43.8582711 33.1664831,45.0206368 31.1106929,46.3773262 C30.812682,46.616983 30.3896851,46.616983 30.0916742,46.3773262 C28.261938,45.1803875 26.4073477,43.8630398 26.4073477,43.8630398 C25.8438581,43.4585978 25.4388983,42.8680262 25.262875,42.1940018 L23.7349388,36.3428318 L23.4,35.0588648 L23.9183858,33.6354139 L23.54084,32.7865889 C23.5035478,32.7025086 23.5214169,32.6039843 23.5858141,32.5386175 L24.5882633,31.5169279 C25.0215832,31.0714547 25.6717707,30.918993 26.255856,31.1258962 L26.5233336,31.2212698 L28.0264157,29.5665379 L30.5946741,29.546271 L30.6112435,29.546271 L33.1629325,29.560577 L34.6671982,31.202195 L34.9429605,31.1056293 C35.5231865,30.9011813 36.1684303,31.0520636 36.5999014,31.4930845 L37.5845977,32.4956994 C37.6654237,32.5776932 37.687984,32.7012605 37.6414071,32.8068558 L37.2792471,33.6246843 L37.8,35.0493274 Z M31.0207446,40.0910141 C30.9233393,40.0470918 30.8228637,40.0104333 30.7201282,39.9813344 L30.5390482,39.9813344 C30.4363127,40.0104333 30.3358371,40.0470918 30.2384318,40.0910141 L29.7827731,40.2817613 C29.6383825,40.3425619 29.4064108,40.4510494 29.2679379,40.5201953 L28.4299992,40.960106 C28.3679161,40.9803949 28.3243258,41.036681 28.3198977,41.1022747 C28.3154697,41.1678685 28.3510943,41.2295805 28.4098792,41.2581484 L29.1377497,41.7755502 C29.2655708,41.8661551 29.4667708,42.0259059 29.5851237,42.1332012 L29.7898743,42.3108345 C29.9082272,42.4133611 30.1011424,42.5838414 30.2183118,42.6887524 L30.4124106,42.861617 C30.5361691,42.9654708 30.7159062,42.9654708 30.8396647,42.861617 L31.0432317,42.6827915 L31.4716693,42.3060658 L31.6776034,42.124856 C31.7959563,42.0211372 31.9959727,41.8613864 32.1237939,41.767205 L32.8516643,41.2426502 C32.9105983,41.2141497 32.9461322,41.1521426 32.9411583,41.0864822 C32.9361843,41.0208217 32.8917219,40.9649634 32.8291773,40.9457999 L31.9924221,40.5178109 C31.8527657,40.4462807 31.620794,40.3389854 31.4752199,40.2793769 L31.0207446,40.0910141 Z M36.180932,35.3676368 L36.2046026,35.2913379 C36.2060023,35.1892691 36.1996718,35.0872414 36.1856661,34.9861424 C36.115206,34.8055571 36.0246817,34.633585 35.9158215,34.4735093 L35.4424098,33.7737056 C35.3548286,33.6425669 35.205704,33.4351293 35.105104,33.3123358 L34.4707323,32.5123898 C34.4128681,32.4344246 34.3500071,32.3603522 34.2825512,32.2906462 L34.2695323,32.2906462 C34.2695323,32.2906462 34.1417112,32.3132974 33.9878524,32.3431017 L33.018542,32.5314645 L32.593655,32.6137242 C32.4525964,32.6204005 32.3115757,32.5997608 32.1782362,32.5529236 L31.4124928,32.3037601 C31.2633681,32.2548811 31.017194,32.1845431 30.8645188,32.1511623 C30.7036174,32.1339369 30.5413567,32.1339369 30.3804553,32.1511623 C30.2277801,32.1869274 29.981606,32.2560733 29.8324813,32.3049522 L29.0667379,32.5553079 C28.9333984,32.6021451 28.7923777,32.6227849 28.6513191,32.6161086 L28.2264322,32.535041 L27.2559382,32.3478703 C27.1020794,32.3180661 26.9754418,32.2942227 26.9742582,32.2954149 L26.9612394,32.2954149 C26.8937835,32.3651209 26.8309225,32.4391933 26.7730583,32.5171585 L26.1398701,33.3171045 C26.0428207,33.4363215 25.8901455,33.6485277 25.8025643,33.7784743 L25.3291526,34.478278 C25.2473901,34.5989588 25.1727004,34.7243505 25.1054656,34.8538115 C25.0649091,34.9981697 25.0434204,35.1472831 25.041555,35.2972988 L25.0652256,35.3735976 C25.0766204,35.4226096 25.0912497,35.4708009 25.1090162,35.5178502 C25.2072491,35.6370672 25.3753103,35.8349674 25.4830114,35.9506079 L27.1399523,37.7245568 C27.251977,37.8562887 27.2841564,38.0389044 27.2239829,38.2014247 L26.9529547,38.848773 C26.8913263,39.0202778 26.8867568,39.2073223 26.9399359,39.381673 L26.9943782,39.5318864 C27.0833336,39.7758517 27.2358154,39.9912142 27.4358346,40.1553913 L27.6962111,40.3687897 C27.833709,40.4686952 28.0125629,40.4903144 28.1696228,40.4260138 L29.0951426,39.9813344 C29.2650304,39.8956652 29.4239918,39.7895844 29.5685543,39.6654094 L30.3094436,38.9918334 C30.3690674,38.9376128 30.4043513,38.8613813 30.4072501,38.7805207 C30.410149,38.69966 30.3804155,38.6210635 30.3248295,38.5626522 L28.6525027,37.4277064 C28.5216422,37.3341685 28.4783692,37.1582925 28.5507192,37.0140235 L29.1992932,35.7860884 C29.2737845,35.6342742 29.285281,35.4588516 29.2312485,35.2984909 C29.1507076,35.14703 29.0206753,35.028262 28.8631709,34.962299 L26.8298677,34.1885807 C26.6831101,34.1325487 26.6913948,34.0693637 26.8464371,34.0598264 L28.0406181,33.9406094 C28.2278792,33.9286143 28.4158607,33.9454994 28.5980603,33.9906805 L29.637199,34.2827621 C29.7897746,34.3290861 29.8848469,34.4819049 29.8597025,34.6404131 L29.4513849,36.8864613 C29.4240758,37.0108636 29.4172783,37.1389452 29.4312649,37.2655713 C29.4478343,37.319219 29.5874908,37.3847883 29.740166,37.4229378 L30.3733542,37.5588451 C30.5572337,37.5928884 30.7457333,37.5928884 30.9296129,37.5588451 L31.4988904,37.4288986 C31.6515657,37.3943257 31.7900386,37.3216033 31.8077916,37.2679557 C31.8214115,37.1412648 31.8142139,37.0131791 31.786488,36.8888456 L31.3758034,34.6427975 C31.3506589,34.4842892 31.4457313,34.3314704 31.5983069,34.2851465 L32.6374455,33.9918727 C32.8196421,33.9466731 33.0076264,33.9297878 33.1948878,33.9418015 L34.3890688,34.0538655 C34.5452946,34.0681716 34.5523958,34.1265879 34.4068217,34.1826199 L32.3747021,34.9587225 C32.2171977,35.0246855 32.0871653,35.1434535 32.0066245,35.2949144 C31.9527234,35.4552925 31.9642165,35.630663 32.0385798,35.7825119 L32.6883373,37.010447 C32.7606872,37.154716 32.7174143,37.330592 32.5865538,37.4241299 L30.9154105,38.56146 C30.8598245,38.6198713 30.830091,38.6984678 30.8329898,38.7793285 C30.8358886,38.8601891 30.8711726,38.9364207 30.9307964,38.9906412 L31.6728692,39.6642172 C31.8174955,39.7879749 31.9764542,39.8936537 32.1462809,39.9789501 L33.0718008,40.4224373 C33.2290606,40.4863959 33.4079289,40.4643245 33.5452125,40.364021 L33.8055889,40.1494304 C34.0058234,39.9849661 34.1583284,39.769159 34.2470453,39.5247334 L34.3014876,39.3745199 C34.3546667,39.2001693 34.3500972,39.0131248 34.2884688,38.84162 L34.0162571,38.1942717 C33.9560836,38.0317514 33.988263,37.8491357 34.1002877,37.7174037 L35.7572286,35.9410705 C35.8649297,35.8218535 36.0318073,35.6311063 36.1300403,35.5083128 C36.1500693,35.4626042 36.1670705,35.4156093 36.180932,35.3676368 Z" id="Combined-Shape" fill="#FFFFFF" fill-rule="nonzero"></path>
                        </g>
                        <g id="iPhone" transform="translate(142.200000, 40.175142)">
                            <path d="M27.3418454,64.1603012 L3.25739737,64.1603012 C1.45833271,64.1603012 0,62.693545 0,60.8833273 L0,3.27773548 C0,1.46751772 1.45833271,0 3.25739737,0 L27.3418454,0 C29.1409101,0 30.6,1.46751772 30.6,3.27773548 L30.6,60.8833273 C30.6,62.693545 29.1409101,64.1603012 27.3418454,64.1603012 Z" id="Shape" stroke="#FFFFFF" stroke-width="0.519480519"></path>
                            <rect id="Rectangle" stroke="#FFFFFF" stroke-width="0.519480519" x="1.81525424" y="9.35129896" width="26.7101695" height="45.4577033"></rect>
                            <path d="M19.8,29.8893676 L19.5703953,30.7469352 L18.5572943,34.6493048 C18.4401489,35.0985376 18.1704661,35.4922358 17.7951015,35.7619967 C17.7951015,35.7619967 16.7109887,36.5369071 15.3404619,37.4413667 C15.141788,37.601138 14.85979,37.601138 14.6611161,37.4413667 C13.441292,36.6434077 12.2048985,35.7651758 12.2048985,35.7651758 C11.8292387,35.4955479 11.5592656,35.1018335 11.4419167,34.6524839 L10.4232925,30.7517038 L10.2,29.8957258 L10.5455905,28.9467586 L10.2938933,28.3808752 C10.2690319,28.3248217 10.2809446,28.2591389 10.3238761,28.215561 L10.9921756,27.5344346 C11.2810554,27.2374525 11.7145138,27.1358113 12.103904,27.2737467 L12.2822224,27.3373291 L13.2842771,26.2341746 L14.9964494,26.2206633 L15.0074957,26.2206633 L16.7086217,26.2302007 L17.7114654,27.3246127 L17.895307,27.2602355 C18.2821243,27.1239369 18.7122868,27.2245251 18.9999342,27.518539 L19.6563985,28.1869489 C19.7102825,28.2416114 19.7253227,28.3239897 19.6942714,28.3943865 L19.4528314,28.9396055 L19.8,29.8893676 Z M15.2804964,33.250492 C15.2155596,33.2212105 15.1485758,33.1967715 15.0800855,33.1773723 L14.9593655,33.1773723 C14.8908752,33.1967715 14.8238914,33.2212105 14.7589545,33.250492 L14.455182,33.3776568 C14.3589217,33.4181906 14.2042739,33.4905156 14.1119586,33.5366128 L13.5533328,33.8298866 C13.5119441,33.8434126 13.4828839,33.8809366 13.4799318,33.9246658 C13.4769798,33.9683949 13.5007295,34.0095363 13.5399195,34.0285816 L14.0251664,34.3735161 C14.1103805,34.4339194 14.2445138,34.5404199 14.3234158,34.6119501 L14.4599162,34.7303723 C14.5388181,34.7987234 14.6674283,34.9123769 14.7455412,34.9823176 L14.8749404,35.0975606 C14.957446,35.1667965 15.0772708,35.1667965 15.1597764,35.0975606 L15.2954878,34.9783437 L15.5811128,34.7271932 L15.7184022,34.6063866 C15.7973042,34.5372408 15.9306485,34.4307403 16.0158626,34.3679526 L16.5011096,34.0182495 C16.5403989,33.9992491 16.5640881,33.9579111 16.5607722,33.9141374 C16.5574562,33.8703638 16.5278146,33.8331249 16.4861182,33.8203493 L15.9282814,33.5350232 C15.8351771,33.4873365 15.6805293,33.4158063 15.5834799,33.3760673 L15.2804964,33.250492 Z M18.7206214,30.1015738 L18.7364017,30.0507079 C18.7373349,29.982662 18.7331146,29.9146436 18.7237774,29.8472442 C18.676804,29.7268541 18.6164545,29.612206 18.543881,29.5054889 L18.2282732,29.038953 C18.1698858,28.9515272 18.0704693,28.8132355 18.0034026,28.7313732 L17.5804882,28.1980758 C17.5419121,28.146099 17.5000047,28.0967174 17.4550341,28.0502468 L17.4463549,28.0502468 C17.4463549,28.0502468 17.3611408,28.0653476 17.2585683,28.0852171 L16.6123613,28.2107923 L16.3291033,28.2656321 C16.2350642,28.270083 16.1410505,28.2563231 16.0521575,28.2250984 L15.5416619,28.0589893 C15.4422454,28.0264034 15.2781294,27.9795113 15.1763459,27.9572575 C15.0690783,27.9457739 14.9609045,27.9457739 14.8536369,27.9572575 C14.7518534,27.9811009 14.5877373,28.0271981 14.4883209,28.0597841 L13.9778253,28.2266879 C13.8889323,28.2579127 13.7949185,28.2716726 13.7008794,28.2672217 L13.4176214,28.2131767 L12.7706255,28.0883962 C12.6680529,28.0685267 12.5836278,28.0526311 12.5828388,28.0534259 L12.5741596,28.0534259 C12.529189,28.0998966 12.4872817,28.1492782 12.4487055,28.201255 L12.0265801,28.7345523 C11.9618805,28.8140303 11.860097,28.9555011 11.8017095,29.0421321 L11.4861018,29.508668 C11.4315934,29.5891218 11.3818003,29.6727163 11.3369771,29.7590237 C11.3099394,29.8552624 11.2956136,29.9546714 11.29437,30.0546818 L11.3101504,30.1055477 C11.3177469,30.1382224 11.3274998,30.1703499 11.3393441,30.2017161 C11.4048327,30.2811941 11.5168735,30.4131276 11.5886743,30.4902212 L12.6933016,31.6728538 C12.7679847,31.7606751 12.7894376,31.8824189 12.7493219,31.9907658 L12.5686365,32.4223313 C12.5275509,32.5366678 12.5245045,32.6613642 12.5599573,32.777598 L12.5962522,32.8777402 C12.6555557,33.0403838 12.7572103,33.1839588 12.8905564,33.2934101 L13.0641407,33.4356758 C13.155806,33.5022794 13.2750419,33.5166922 13.3797485,33.4738252 L13.9967617,33.1773723 C14.1100202,33.1202595 14.2159945,33.0495389 14.3123695,32.9667556 L14.8062957,32.5177049 C14.8460449,32.4815579 14.8695676,32.4307369 14.8715001,32.3768298 C14.8734326,32.3229227 14.8536103,32.270525 14.816553,32.2315841 L13.7016684,31.4749536 C13.6144281,31.412595 13.5855795,31.2953443 13.6338128,31.199165 L14.0661954,30.3805416 C14.1158563,30.2793321 14.1235207,30.1623837 14.087499,30.0554766 C14.0338051,29.9545026 13.9471168,29.875324 13.8421139,29.8313486 L12.4865784,29.3155365 C12.38874,29.2781818 12.3942632,29.2360585 12.4976247,29.2297002 L13.2937454,29.1502222 C13.4185861,29.1422255 13.5439072,29.1534822 13.6653736,29.183603 L14.3581327,29.3783241 C14.4598497,29.4092067 14.5232313,29.5110859 14.5064683,29.6167581 L14.2342566,31.1141235 C14.2160506,31.1970584 14.2115189,31.2824461 14.2208433,31.3668635 C14.2318895,31.4026286 14.3249938,31.4463415 14.4267773,31.4717745 L14.8489028,31.5623794 C14.9714891,31.5850749 15.0971556,31.5850749 15.2197419,31.5623794 L15.5992603,31.4757484 C15.7010438,31.4526998 15.7933591,31.4042182 15.8051944,31.3684531 C15.8142744,31.2839925 15.809476,31.198602 15.790992,31.1157131 L15.5172023,29.6183476 C15.5004393,29.5126755 15.5638209,29.4107962 15.6655379,29.3799136 L16.358297,29.1843978 C16.4797614,29.1542647 16.6050843,29.1430078 16.7299252,29.151017 L17.5260459,29.2257263 C17.6301964,29.2352637 17.6349305,29.2742079 17.5378812,29.3115626 L16.1831347,29.8289643 C16.0781318,29.8729397 15.9914436,29.9521183 15.9377497,30.0530923 C15.9018156,30.1600109 15.9094777,30.2769247 15.9590532,30.3781573 L16.3922249,31.1967806 C16.4404582,31.29296 16.4116095,31.4102106 16.3243692,31.4725693 L15.2102737,32.2307893 C15.1732163,32.2697302 15.153394,32.3221279 15.1553266,32.376035 C15.1572591,32.4299421 15.1807817,32.4807631 15.2205309,32.5169101 L15.7152462,32.9659608 C15.8116637,33.0484659 15.9176361,33.1189184 16.0308539,33.1757827 L16.6478672,33.4714409 C16.7527071,33.5140799 16.8719526,33.4993657 16.963475,33.4324966 L17.1370593,33.2894362 C17.270549,33.1797934 17.372219,33.035922 17.4313635,32.8729715 L17.4676584,32.7728293 C17.5031111,32.6565955 17.5000648,32.5318992 17.4589792,32.4175626 L17.2775047,31.9859971 C17.2373891,31.8776502 17.258842,31.7559065 17.3335251,31.6680851 L18.4381524,30.483863 C18.5099532,30.404385 18.6212049,30.2772202 18.6866935,30.1953579 C18.7000462,30.1648854 18.7113803,30.1335555 18.7206214,30.1015738 Z" id="Combined-Shape" fill="#FFFFFF" fill-rule="nonzero"></path>
                        </g>
                    </g>
                </g>
            </g>
        </g>
    </g>
</svg>